<?xml version="1.0" encoding="utf-8"?>
<!-- Generator: Adobe Illustrator 16.0.0, SVG Export Plug-In . SVG Version: 6.00 Build 0)  -->
<!DOCTYPE svg PUBLIC "-//W3C//DTD SVG 1.1//EN" "http://www.w3.org/Graphics/SVG/1.1/DTD/svg11.dtd">
<svg version="1.1" id="Layer_1" xmlns="http://www.w3.org/2000/svg" xmlns:xlink="http://www.w3.org/1999/xlink" x="0px" y="0px"
	 width="100px" height="100px" viewBox="0 0 100 100" enable-background="new 0 0 100 100" xml:space="preserve">
<g>
	<path fill-rule="evenodd" clip-rule="evenodd" fill="#FFFFFF" d="M50.32,1C22.889,1,0.645,23.245,0.645,50.682
		c0,21.951,14.233,40.57,33.977,47.14c2.482,0.453,3.391-1.078,3.391-2.395c0-1.18-0.043-4.307-0.066-8.453
		c-13.82,3.002-16.736-6.658-16.736-6.658c-2.259-5.738-5.516-7.268-5.516-7.268c-4.51-3.08,0.341-3.02,0.341-3.02
		c4.986,0.352,7.61,5.121,7.61,5.121c4.432,7.59,11.627,5.398,14.458,4.129c0.451-3.211,1.734-5.402,3.153-6.641
		c-11.031-1.258-22.628-5.518-22.628-24.555c0-5.424,1.936-9.858,5.113-13.331c-0.511-1.256-2.216-6.308,0.487-13.146
		c0,0,4.171-1.337,13.661,5.093c3.963-1.102,8.213-1.655,12.438-1.673c4.221,0.018,8.468,0.572,12.438,1.673
		c9.485-6.43,13.648-5.093,13.648-5.093c2.709,6.838,1.003,11.89,0.494,13.146c3.182,3.473,5.104,7.907,5.104,13.331
		c0,19.086-11.615,23.286-22.682,24.512c1.783,1.537,3.37,4.568,3.37,9.203c0,6.643-0.06,11.996-0.06,13.629
		c0,1.328,0.895,2.871,3.416,2.389C85.782,91.234,100,72.627,100,50.682C100,23.245,77.759,1,50.32,1z"/>
</g>
</svg>
