<?xml version="1.0" encoding="utf-8"?>
<!-- Generator: Adobe Illustrator 16.0.0, SVG Export Plug-In . SVG Version: 6.00 Build 0)  -->
<!DOCTYPE svg PUBLIC "-//W3C//DTD SVG 1.1//EN" "http://www.w3.org/Graphics/SVG/1.1/DTD/svg11.dtd">
  <svg xmlns="http://www.w3.org/2000/svg" width="285.88" height="285.88" viewBox="0 0 285.88 285.88">
	  <g class="circle">
		  <path fill="#FFFFFF" d="M264.33 143c0 66.99-54.3 121.29-121.29 121.29-66.98 0-121.29-54.3-121.29-121.29 0-66.98 54.31-121.29 121.29-121.29 66.99 0 121.29 54.31 121.29 121.29zM143.04 264.04c66.74 0 121.04-54.3 121.04-121.04S209.78 21.96 143.04 21.96 22 76.26 22 143s54.3 121.04 121.04 121.04zM264.58 143c0 67.02-54.52 121.54-121.54 121.54C76.02 264.54 21.5 210.02 21.5 143c0-67.02 54.52-121.54 121.54-121.54 67.02 0 121.54 54.52 121.54 121.54zM143.04 264.29c66.99 0 121.29-54.3 121.29-121.29 0-66.98-54.3-121.29-121.29-121.29C76.06 21.71 21.75 76.02 21.75 143c0 66.99 54.31 121.29 121.29 121.29zM143.04 264.54c67.02 0 121.54-54.52 121.54-121.54 0-67.02-54.52-121.54-121.54-121.54C76.02 21.46 21.5 75.98 21.5 143c0 67.02 54.52 121.54 121.54 121.54zm0-263.98c78.54 0 142.44 63.9 142.44 142.44 0 78.55-63.9 142.45-142.44 142.45S.6 221.55.6 143C.6 64.46 64.5.56 143.04.56zM143.04 285.45c78.54 0 142.44-63.9 142.44-142.45C285.48 64.46 221.58.56 143.04.56S.6 64.46.6 143c0 78.55 63.9 142.45 142.44 142.45zm0-285.39c38.18 0 74.08 14.87 101.08 41.86 26.99 27 41.86 62.9 41.86 101.08s-14.87 74.08-41.86 101.08c-27 27-62.9 41.87-101.08 41.87s-74.08-14.87-101.08-41.87C14.97 217.08.1 181.18.1 143S14.97 68.92 41.96 41.92C68.96 14.93 104.86.06 143.04.06z"/>
	  </g>
    <g class="rect left">
      <rect fill="#FFFFFF" x="114.503" y="43.117" width="21.404" height="171.231"/>
    </g>
    <g class="rect right">
      <rect fill="#FFFFFF" x="150.177" y="71.656" width="21.404" height="171.232"/>
    </g>
  </svg>